<mxfile host="65bd71144e">
    <diagram id="Kbkckm6aRAk5_doEy37T" name="tq">
        <mxGraphModel dx="2236" dy="794" grid="1" gridSize="10" guides="1" tooltips="1" connect="1" arrows="1" fold="1" page="1" pageScale="1" pageWidth="850" pageHeight="1100" math="0" shadow="0">
            <root>
                <mxCell id="0"/>
                <mxCell id="1" parent="0"/>
                <mxCell id="xGoYDT_pu2_UHd9pQnfm-51" style="edgeStyle=orthogonalEdgeStyle;html=1;exitX=0;exitY=0.5;exitDx=0;exitDy=0;entryX=0.88;entryY=1;entryDx=0;entryDy=0;entryPerimeter=0;" edge="1" parent="1" source="xGoYDT_pu2_UHd9pQnfm-1" target="xGoYDT_pu2_UHd9pQnfm-49">
                    <mxGeometry relative="1" as="geometry"/>
                </mxCell>
                <mxCell id="xGoYDT_pu2_UHd9pQnfm-1" value="" style="rounded=0;whiteSpace=wrap;html=1;" vertex="1" parent="1">
                    <mxGeometry x="221" y="300" width="107" height="59" as="geometry"/>
                </mxCell>
                <mxCell id="xGoYDT_pu2_UHd9pQnfm-20" style="edgeStyle=orthogonalEdgeStyle;html=1;exitX=1;exitY=0.5;exitDx=0;exitDy=0;entryX=0.25;entryY=1;entryDx=0;entryDy=0;" edge="1" parent="1" source="xGoYDT_pu2_UHd9pQnfm-7" target="xGoYDT_pu2_UHd9pQnfm-8">
                    <mxGeometry relative="1" as="geometry"/>
                </mxCell>
                <mxCell id="xGoYDT_pu2_UHd9pQnfm-7" value="re-issue" style="rounded=0;whiteSpace=wrap;html=1;" vertex="1" parent="1">
                    <mxGeometry x="-240" y="120" width="90" height="40" as="geometry"/>
                </mxCell>
                <mxCell id="xGoYDT_pu2_UHd9pQnfm-12" style="edgeStyle=orthogonalEdgeStyle;html=1;exitX=0.5;exitY=0;exitDx=0;exitDy=0;entryX=0.5;entryY=0;entryDx=0;entryDy=0;entryPerimeter=0;" edge="1" parent="1" source="xGoYDT_pu2_UHd9pQnfm-8" target="xGoYDT_pu2_UHd9pQnfm-25">
                    <mxGeometry relative="1" as="geometry"/>
                </mxCell>
                <mxCell id="xGoYDT_pu2_UHd9pQnfm-48" style="edgeStyle=orthogonalEdgeStyle;html=1;exitX=0.5;exitY=0;exitDx=0;exitDy=0;entryX=0.75;entryY=1;entryDx=0;entryDy=0;" edge="1" parent="1" source="xGoYDT_pu2_UHd9pQnfm-8" target="xGoYDT_pu2_UHd9pQnfm-47">
                    <mxGeometry relative="1" as="geometry"/>
                </mxCell>
                <mxCell id="xGoYDT_pu2_UHd9pQnfm-8" value="re-issue mux" style="shape=trapezoid;perimeter=trapezoidPerimeter;whiteSpace=wrap;html=1;fixedSize=1;rotation=-180;direction=east;verticalAlign=top;horizontal=1;" vertex="1" parent="1">
                    <mxGeometry x="-110" y="179" width="130" height="30" as="geometry"/>
                </mxCell>
                <mxCell id="xGoYDT_pu2_UHd9pQnfm-42" style="edgeStyle=orthogonalEdgeStyle;html=1;exitX=0.75;exitY=0;exitDx=0;exitDy=0;entryX=0.5;entryY=0;entryDx=0;entryDy=0;entryPerimeter=0;" edge="1" parent="1" source="xGoYDT_pu2_UHd9pQnfm-14" target="xGoYDT_pu2_UHd9pQnfm-41">
                    <mxGeometry relative="1" as="geometry">
                        <mxPoint x="380.50000000000045" y="674" as="sourcePoint"/>
                    </mxGeometry>
                </mxCell>
                <mxCell id="xGoYDT_pu2_UHd9pQnfm-43" style="edgeStyle=orthogonalEdgeStyle;html=1;exitX=0.75;exitY=0;exitDx=0;exitDy=0;entryX=1;entryY=0.25;entryDx=0;entryDy=0;" edge="1" parent="1" source="xGoYDT_pu2_UHd9pQnfm-14" target="xGoYDT_pu2_UHd9pQnfm-16">
                    <mxGeometry relative="1" as="geometry">
                        <mxPoint x="-370" y="40" as="targetPoint"/>
                        <Array as="points">
                            <mxPoint x="413" y="540"/>
                            <mxPoint x="530" y="540"/>
                            <mxPoint x="530" y="84"/>
                        </Array>
                    </mxGeometry>
                </mxCell>
                <mxCell id="xGoYDT_pu2_UHd9pQnfm-14" value="pipe_wrap" style="rounded=0;whiteSpace=wrap;html=1;" vertex="1" parent="1">
                    <mxGeometry x="-225" y="594" width="850" height="40" as="geometry"/>
                </mxCell>
                <mxCell id="xGoYDT_pu2_UHd9pQnfm-18" style="edgeStyle=orthogonalEdgeStyle;html=1;entryX=0;entryY=0.25;entryDx=0;entryDy=0;exitX=1;exitY=0.75;exitDx=0;exitDy=0;" edge="1" parent="1" source="xGoYDT_pu2_UHd9pQnfm-16" target="xGoYDT_pu2_UHd9pQnfm-7">
                    <mxGeometry relative="1" as="geometry">
                        <mxPoint x="-332" y="260" as="sourcePoint"/>
                    </mxGeometry>
                </mxCell>
                <mxCell id="xGoYDT_pu2_UHd9pQnfm-45" style="edgeStyle=orthogonalEdgeStyle;html=1;exitX=1;exitY=0.75;exitDx=0;exitDy=0;entryX=0.75;entryY=1;entryDx=0;entryDy=0;" edge="1" parent="1" source="xGoYDT_pu2_UHd9pQnfm-16" target="xGoYDT_pu2_UHd9pQnfm-8">
                    <mxGeometry relative="1" as="geometry"/>
                </mxCell>
                <mxCell id="xGoYDT_pu2_UHd9pQnfm-16" value="Core" style="rounded=0;whiteSpace=wrap;html=1;" vertex="1" parent="1">
                    <mxGeometry x="-515" y="41" width="90" height="170" as="geometry"/>
                </mxCell>
                <mxCell id="xGoYDT_pu2_UHd9pQnfm-66" style="edgeStyle=orthogonalEdgeStyle;html=1;exitX=0.12;exitY=1;exitDx=0;exitDy=0;exitPerimeter=0;entryX=0.25;entryY=0;entryDx=0;entryDy=0;" edge="1" parent="1" source="xGoYDT_pu2_UHd9pQnfm-25" target="xGoYDT_pu2_UHd9pQnfm-1">
                    <mxGeometry relative="1" as="geometry"/>
                </mxCell>
                <mxCell id="xGoYDT_pu2_UHd9pQnfm-67" style="edgeStyle=orthogonalEdgeStyle;html=1;exitX=0.25;exitY=1;exitDx=0;exitDy=0;exitPerimeter=0;entryX=0.25;entryY=0;entryDx=0;entryDy=0;" edge="1" parent="1" source="xGoYDT_pu2_UHd9pQnfm-25" target="xGoYDT_pu2_UHd9pQnfm-52">
                    <mxGeometry relative="1" as="geometry"/>
                </mxCell>
                <mxCell id="xGoYDT_pu2_UHd9pQnfm-69" style="edgeStyle=orthogonalEdgeStyle;html=1;exitX=0.25;exitY=0;exitDx=0;exitDy=0;entryX=0.25;entryY=0;entryDx=0;entryDy=0;" edge="1" parent="1" source="xGoYDT_pu2_UHd9pQnfm-54" target="xGoYDT_pu2_UHd9pQnfm-53">
                    <mxGeometry relative="1" as="geometry"/>
                </mxCell>
                <mxCell id="xGoYDT_pu2_UHd9pQnfm-25" value="alloc_entry" style="shape=trapezoid;perimeter=trapezoidPerimeter;whiteSpace=wrap;html=1;fixedSize=1;points=[[0,1,0,0,0],[0.03,0.73,0,0,0],[0.05,0.5,0,0,0],[0.07,0.28,0,0,0],[0.09,0.08,0,0,0],[0.12,1,0,0,0],[0.25,0,0,0,0],[0.25,1,0,0,0],[0.38,1,0,0,0],[0.5,0,0,0,0],[0.5,1,0,0,0],[0.63,1,0,0,0],[0.75,0,0,0,0],[0.75,1,0,0,0],[0.88,1,0,0,0],[0.91,0.08,0,0,0],[0.93,0.28,0,0,0],[0.95,0.5,0,0,0],[0.97,0.73,0,0,0],[1,1,0,0,0]];rotation=0;" vertex="1" parent="1">
                    <mxGeometry x="239" y="230" width="75" height="20" as="geometry"/>
                </mxCell>
                <mxCell id="xGoYDT_pu2_UHd9pQnfm-41" value="LU_state_update" style="shape=trapezoid;perimeter=trapezoidPerimeter;whiteSpace=wrap;html=1;fixedSize=1;points=[[0,1,0,0,0],[0.03,0.73,0,0,0],[0.05,0.5,0,0,0],[0.07,0.28,0,0,0],[0.09,0.08,0,0,0],[0.12,1,0,0,0],[0.25,0,0,0,0],[0.25,1,0,0,0],[0.38,1,0,0,0],[0.5,0,0,0,0],[0.5,1,0,0,0],[0.63,1,0,0,0],[0.75,0,0,0,0],[0.75,1,0,0,0],[0.88,1,0,0,0],[0.91,0.08,0,0,0],[0.93,0.28,0,0,0],[0.95,0.5,0,0,0],[0.97,0.73,0,0,0],[1,1,0,0,0]];rotation=-180;horizontal=1;textDirection=ltr;verticalAlign=bottom;" vertex="1" parent="1">
                    <mxGeometry x="279" y="448.75" width="116" height="40" as="geometry"/>
                </mxCell>
                <mxCell id="xGoYDT_pu2_UHd9pQnfm-79" style="edgeStyle=orthogonalEdgeStyle;html=1;exitX=0.88;exitY=1;exitDx=0;exitDy=0;exitPerimeter=0;fontSize=8;" edge="1" parent="1" source="xGoYDT_pu2_UHd9pQnfm-46" target="xGoYDT_pu2_UHd9pQnfm-57">
                    <mxGeometry relative="1" as="geometry"/>
                </mxCell>
                <mxCell id="xGoYDT_pu2_UHd9pQnfm-80" style="edgeStyle=orthogonalEdgeStyle;html=1;exitX=0.25;exitY=1;exitDx=0;exitDy=0;exitPerimeter=0;entryX=1;entryY=0.25;entryDx=0;entryDy=0;fontSize=8;" edge="1" parent="1" source="xGoYDT_pu2_UHd9pQnfm-46" target="xGoYDT_pu2_UHd9pQnfm-52">
                    <mxGeometry relative="1" as="geometry"/>
                </mxCell>
                <mxCell id="xGoYDT_pu2_UHd9pQnfm-46" value="FILL&lt;br&gt;MATCH" style="shape=trapezoid;perimeter=trapezoidPerimeter;whiteSpace=wrap;html=1;fixedSize=1;points=[[0,1,0,0,0],[0.03,0.73,0,0,0],[0.05,0.5,0,0,0],[0.07,0.28,0,0,0],[0.09,0.08,0,0,0],[0.12,1,0,0,0],[0.25,0,0,0,0],[0.25,1,0,0,0],[0.38,1,0,0,0],[0.5,0,0,0,0],[0.5,1,0,0,0],[0.63,1,0,0,0],[0.75,0,0,0,0],[0.75,1,0,0,0],[0.88,1,0,0,0],[0.91,0.08,0,0,0],[0.93,0.28,0,0,0],[0.95,0.5,0,0,0],[0.97,0.73,0,0,0],[1,1,0,0,0]];rotation=90;horizontal=0;" vertex="1" parent="1">
                    <mxGeometry x="396.25" y="323.75" width="97.5" height="50" as="geometry"/>
                </mxCell>
                <mxCell id="xGoYDT_pu2_UHd9pQnfm-81" style="edgeStyle=orthogonalEdgeStyle;html=1;exitX=0.5;exitY=0;exitDx=0;exitDy=0;entryX=0.25;entryY=0;entryDx=0;entryDy=0;fontSize=8;" edge="1" parent="1" source="xGoYDT_pu2_UHd9pQnfm-47" target="xGoYDT_pu2_UHd9pQnfm-14">
                    <mxGeometry relative="1" as="geometry"/>
                </mxCell>
                <mxCell id="xGoYDT_pu2_UHd9pQnfm-47" value="" style="shape=trapezoid;perimeter=trapezoidPerimeter;whiteSpace=wrap;html=1;fixedSize=1;rotation=-180;direction=east;" vertex="1" parent="1">
                    <mxGeometry x="-78" y="520" width="130" height="30" as="geometry"/>
                </mxCell>
                <mxCell id="xGoYDT_pu2_UHd9pQnfm-50" style="edgeStyle=orthogonalEdgeStyle;html=1;exitX=0.5;exitY=0;exitDx=0;exitDy=0;exitPerimeter=0;entryX=0.25;entryY=1;entryDx=0;entryDy=0;" edge="1" parent="1" source="xGoYDT_pu2_UHd9pQnfm-49" target="xGoYDT_pu2_UHd9pQnfm-47">
                    <mxGeometry relative="1" as="geometry"/>
                </mxCell>
                <mxCell id="xGoYDT_pu2_UHd9pQnfm-49" value="selecet_fill" style="shape=trapezoid;perimeter=trapezoidPerimeter;whiteSpace=wrap;html=1;fixedSize=1;points=[[0,1,0,0,0],[0.03,0.73,0,0,0],[0.05,0.5,0,0,0],[0.07,0.28,0,0,0],[0.09,0.08,0,0,0],[0.12,1,0,0,0],[0.25,0,0,0,0],[0.25,1,0,0,0],[0.38,1,0,0,0],[0.5,0,0,0,0],[0.5,1,0,0,0],[0.63,1,0,0,0],[0.75,0,0,0,0],[0.75,1,0,0,0],[0.88,1,0,0,0],[0.91,0.08,0,0,0],[0.93,0.28,0,0,0],[0.95,0.5,0,0,0],[0.97,0.73,0,0,0],[1,1,0,0,0]];rotation=-180;" vertex="1" parent="1">
                    <mxGeometry x="132" y="446" width="123" height="45.5" as="geometry"/>
                </mxCell>
                <mxCell id="xGoYDT_pu2_UHd9pQnfm-59" style="edgeStyle=orthogonalEdgeStyle;html=1;exitX=0;exitY=0.5;exitDx=0;exitDy=0;entryX=0.75;entryY=1;entryDx=0;entryDy=0;entryPerimeter=0;" edge="1" parent="1" source="xGoYDT_pu2_UHd9pQnfm-52" target="xGoYDT_pu2_UHd9pQnfm-49">
                    <mxGeometry relative="1" as="geometry"/>
                </mxCell>
                <mxCell id="xGoYDT_pu2_UHd9pQnfm-52" value="" style="rounded=0;whiteSpace=wrap;html=1;" vertex="1" parent="1">
                    <mxGeometry x="230" y="310" width="107" height="59" as="geometry"/>
                </mxCell>
                <mxCell id="xGoYDT_pu2_UHd9pQnfm-60" style="edgeStyle=orthogonalEdgeStyle;html=1;exitX=0;exitY=0.5;exitDx=0;exitDy=0;entryX=0.63;entryY=1;entryDx=0;entryDy=0;entryPerimeter=0;" edge="1" parent="1" source="xGoYDT_pu2_UHd9pQnfm-53" target="xGoYDT_pu2_UHd9pQnfm-49">
                    <mxGeometry relative="1" as="geometry"/>
                </mxCell>
                <mxCell id="xGoYDT_pu2_UHd9pQnfm-53" value="" style="rounded=0;whiteSpace=wrap;html=1;" vertex="1" parent="1">
                    <mxGeometry x="240" y="320" width="107" height="59" as="geometry"/>
                </mxCell>
                <mxCell id="xGoYDT_pu2_UHd9pQnfm-61" style="edgeStyle=orthogonalEdgeStyle;html=1;exitX=0;exitY=0.5;exitDx=0;exitDy=0;entryX=0.5;entryY=1;entryDx=0;entryDy=0;entryPerimeter=0;" edge="1" parent="1" source="xGoYDT_pu2_UHd9pQnfm-54" target="xGoYDT_pu2_UHd9pQnfm-49">
                    <mxGeometry relative="1" as="geometry"/>
                </mxCell>
                <mxCell id="xGoYDT_pu2_UHd9pQnfm-54" value="" style="rounded=0;whiteSpace=wrap;html=1;" vertex="1" parent="1">
                    <mxGeometry x="250" y="330" width="107" height="59" as="geometry"/>
                </mxCell>
                <mxCell id="xGoYDT_pu2_UHd9pQnfm-62" style="edgeStyle=orthogonalEdgeStyle;html=1;exitX=0;exitY=0.5;exitDx=0;exitDy=0;entryX=0.38;entryY=1;entryDx=0;entryDy=0;entryPerimeter=0;" edge="1" parent="1" source="xGoYDT_pu2_UHd9pQnfm-55" target="xGoYDT_pu2_UHd9pQnfm-49">
                    <mxGeometry relative="1" as="geometry"/>
                </mxCell>
                <mxCell id="xGoYDT_pu2_UHd9pQnfm-55" value="" style="rounded=0;whiteSpace=wrap;html=1;" vertex="1" parent="1">
                    <mxGeometry x="260" y="340" width="107" height="59" as="geometry"/>
                </mxCell>
                <mxCell id="xGoYDT_pu2_UHd9pQnfm-63" style="edgeStyle=orthogonalEdgeStyle;html=1;exitX=0;exitY=0.5;exitDx=0;exitDy=0;entryX=0.25;entryY=1;entryDx=0;entryDy=0;entryPerimeter=0;" edge="1" parent="1" source="xGoYDT_pu2_UHd9pQnfm-56" target="xGoYDT_pu2_UHd9pQnfm-49">
                    <mxGeometry relative="1" as="geometry"/>
                </mxCell>
                <mxCell id="xGoYDT_pu2_UHd9pQnfm-56" value="" style="rounded=0;whiteSpace=wrap;html=1;" vertex="1" parent="1">
                    <mxGeometry x="269" y="350" width="107" height="59" as="geometry"/>
                </mxCell>
                <mxCell id="xGoYDT_pu2_UHd9pQnfm-64" style="edgeStyle=orthogonalEdgeStyle;html=1;exitX=0;exitY=0.5;exitDx=0;exitDy=0;entryX=0.12;entryY=1;entryDx=0;entryDy=0;entryPerimeter=0;" edge="1" parent="1" source="xGoYDT_pu2_UHd9pQnfm-57" target="xGoYDT_pu2_UHd9pQnfm-49">
                    <mxGeometry relative="1" as="geometry"/>
                </mxCell>
                <mxCell id="xGoYDT_pu2_UHd9pQnfm-57" value="" style="rounded=0;whiteSpace=wrap;html=1;" vertex="1" parent="1">
                    <mxGeometry x="279" y="360" width="107" height="59" as="geometry"/>
                </mxCell>
                <mxCell id="xGoYDT_pu2_UHd9pQnfm-68" style="edgeStyle=orthogonalEdgeStyle;html=1;exitX=0.38;exitY=1;exitDx=0;exitDy=0;exitPerimeter=0;entryX=0.25;entryY=0;entryDx=0;entryDy=0;" edge="1" parent="1" source="xGoYDT_pu2_UHd9pQnfm-25" target="xGoYDT_pu2_UHd9pQnfm-53">
                    <mxGeometry relative="1" as="geometry"/>
                </mxCell>
                <mxCell id="xGoYDT_pu2_UHd9pQnfm-70" style="edgeStyle=orthogonalEdgeStyle;html=1;exitX=0.5;exitY=1;exitDx=0;exitDy=0;exitPerimeter=0;entryX=0.25;entryY=0;entryDx=0;entryDy=0;" edge="1" parent="1" source="xGoYDT_pu2_UHd9pQnfm-25" target="xGoYDT_pu2_UHd9pQnfm-54">
                    <mxGeometry relative="1" as="geometry">
                        <mxPoint x="320" y="280" as="targetPoint"/>
                    </mxGeometry>
                </mxCell>
                <mxCell id="xGoYDT_pu2_UHd9pQnfm-71" style="edgeStyle=orthogonalEdgeStyle;html=1;exitX=0.63;exitY=1;exitDx=0;exitDy=0;exitPerimeter=0;entryX=0.25;entryY=0;entryDx=0;entryDy=0;" edge="1" parent="1" source="xGoYDT_pu2_UHd9pQnfm-25" target="xGoYDT_pu2_UHd9pQnfm-55">
                    <mxGeometry relative="1" as="geometry"/>
                </mxCell>
                <mxCell id="xGoYDT_pu2_UHd9pQnfm-72" style="edgeStyle=orthogonalEdgeStyle;html=1;exitX=0.75;exitY=1;exitDx=0;exitDy=0;exitPerimeter=0;entryX=0.25;entryY=0;entryDx=0;entryDy=0;" edge="1" parent="1" source="xGoYDT_pu2_UHd9pQnfm-25" target="xGoYDT_pu2_UHd9pQnfm-56">
                    <mxGeometry relative="1" as="geometry"/>
                </mxCell>
                <mxCell id="xGoYDT_pu2_UHd9pQnfm-73" style="edgeStyle=orthogonalEdgeStyle;html=1;exitX=0.88;exitY=1;exitDx=0;exitDy=0;exitPerimeter=0;entryX=0.25;entryY=0;entryDx=0;entryDy=0;" edge="1" parent="1" source="xGoYDT_pu2_UHd9pQnfm-25" target="xGoYDT_pu2_UHd9pQnfm-57">
                    <mxGeometry relative="1" as="geometry"/>
                </mxCell>
                <mxCell id="xGoYDT_pu2_UHd9pQnfm-77" style="edgeStyle=orthogonalEdgeStyle;html=1;exitX=0.4;exitY=0.1;exitDx=0;exitDy=0;exitPerimeter=0;entryX=0.95;entryY=0.5;entryDx=0;entryDy=0;entryPerimeter=0;fontSize=8;" edge="1" parent="1" source="xGoYDT_pu2_UHd9pQnfm-75" target="xGoYDT_pu2_UHd9pQnfm-25">
                    <mxGeometry relative="1" as="geometry"/>
                </mxCell>
                <mxCell id="xGoYDT_pu2_UHd9pQnfm-75" value="&lt;font style=&quot;font-size: 8px;&quot;&gt;FIND_FIRST&lt;br&gt;Free&lt;/font&gt;" style="ellipse;shape=cloud;whiteSpace=wrap;html=1;" vertex="1" parent="1">
                    <mxGeometry x="314" y="250" width="92" height="40" as="geometry"/>
                </mxCell>
            </root>
        </mxGraphModel>
    </diagram>
    <diagram id="IHiNHNxCexlWUtnC_lKz" name="tq_entry_fsm">
        <mxGraphModel dx="1213" dy="695" grid="1" gridSize="10" guides="1" tooltips="1" connect="1" arrows="1" fold="1" page="1" pageScale="1" pageWidth="850" pageHeight="1100" math="0" shadow="0">
            <root>
                <mxCell id="0"/>
                <mxCell id="1" parent="0"/>
                <mxCell id="3" value="S_IDLE" style="ellipse;whiteSpace=wrap;html=1;aspect=fixed;" vertex="1" parent="1">
                    <mxGeometry x="40" y="40" width="140" height="140" as="geometry"/>
                </mxCell>
                <mxCell id="24" style="edgeStyle=none;html=1;exitX=0.96;exitY=0.29;exitDx=0;exitDy=0;exitPerimeter=0;entryX=0;entryY=1;entryDx=0;entryDy=0;" edge="1" parent="1" source="4" target="7">
                    <mxGeometry relative="1" as="geometry"/>
                </mxCell>
                <mxCell id="4" value="S_LU_CORE" style="ellipse;whiteSpace=wrap;html=1;aspect=fixed;points=[[0,0.5,0,0,0],[0.15,0.15,0,0,0],[0.15,0.85,0,0,0],[0.5,0,0,0,0],[0.5,1,0,0,0],[0.85,0.15,0,0,0],[0.85,0.85,0,0,0],[0.96,0.29,0,0,0],[1,0.5,0,0,0]];" vertex="1" parent="1">
                    <mxGeometry x="40" y="530" width="140" height="140" as="geometry"/>
                </mxCell>
                <mxCell id="23" style="edgeStyle=none;html=1;exitX=0;exitY=0;exitDx=0;exitDy=0;entryX=1;entryY=1;entryDx=0;entryDy=0;" edge="1" parent="1" source="5" target="7">
                    <mxGeometry relative="1" as="geometry"/>
                </mxCell>
                <mxCell id="5" value="S_MB_WAIT_FILL" style="ellipse;whiteSpace=wrap;html=1;aspect=fixed;" vertex="1" parent="1">
                    <mxGeometry x="670" y="530" width="140" height="140" as="geometry"/>
                </mxCell>
                <mxCell id="22" style="edgeStyle=none;html=1;exitX=0;exitY=1;exitDx=0;exitDy=0;entryX=1;entryY=0;entryDx=0;entryDy=0;" edge="1" parent="1" source="6" target="7">
                    <mxGeometry relative="1" as="geometry"/>
                </mxCell>
                <mxCell id="6" value="S_MB_FILL_READY" style="ellipse;whiteSpace=wrap;html=1;aspect=fixed;" vertex="1" parent="1">
                    <mxGeometry x="670" y="40" width="140" height="140" as="geometry"/>
                </mxCell>
                <mxCell id="7" value="S_ERROR" style="ellipse;whiteSpace=wrap;html=1;aspect=fixed;" vertex="1" parent="1">
                    <mxGeometry x="350" y="290" width="100" height="100" as="geometry"/>
                </mxCell>
                <mxCell id="8" value="" style="endArrow=classic;html=1;entryX=1;entryY=1;entryDx=0;entryDy=0;exitX=1;exitY=0;exitDx=0;exitDy=0;" edge="1" parent="1" source="4" target="3">
                    <mxGeometry relative="1" as="geometry">
                        <mxPoint x="200" y="330" as="sourcePoint"/>
                        <mxPoint x="300" y="330" as="targetPoint"/>
                    </mxGeometry>
                </mxCell>
                <mxCell id="9" value="pipe_lu_rsp_q3.valid&lt;br&gt;pipe_lu_rsp_q3.lu_result == HIT" style="edgeLabel;resizable=0;html=1;align=center;verticalAlign=middle;" connectable="0" vertex="1" parent="8">
                    <mxGeometry relative="1" as="geometry">
                        <mxPoint y="35" as="offset"/>
                    </mxGeometry>
                </mxCell>
                <mxCell id="10" value="allocate entry" style="endArrow=classic;html=1;entryX=0;entryY=0;entryDx=0;entryDy=0;exitX=0;exitY=1;exitDx=0;exitDy=0;" edge="1" parent="1" source="3" target="4">
                    <mxGeometry x="-0.179" y="-1" relative="1" as="geometry">
                        <mxPoint x="199.49747468306168" y="390.5025253169383" as="sourcePoint"/>
                        <mxPoint x="199.49747468306168" y="159.49747468306157" as="targetPoint"/>
                        <mxPoint as="offset"/>
                    </mxGeometry>
                </mxCell>
                <mxCell id="12" value="" style="endArrow=classic;html=1;exitX=1;exitY=0.5;exitDx=0;exitDy=0;" edge="1" parent="1" source="4" target="5">
                    <mxGeometry relative="1" as="geometry">
                        <mxPoint x="370.00252531693855" y="469.99747468306157" as="sourcePoint"/>
                        <mxPoint x="370.00252531693855" y="701.0025253169383" as="targetPoint"/>
                    </mxGeometry>
                </mxCell>
                <mxCell id="13" value="Label" style="edgeLabel;resizable=0;html=1;align=center;verticalAlign=middle;" connectable="0" vertex="1" parent="12">
                    <mxGeometry relative="1" as="geometry"/>
                </mxCell>
                <mxCell id="14" value="" style="endArrow=classic;html=1;exitX=0.5;exitY=0;exitDx=0;exitDy=0;entryX=0.5;entryY=1;entryDx=0;entryDy=0;" edge="1" parent="1" source="5" target="6">
                    <mxGeometry relative="1" as="geometry">
                        <mxPoint x="220.00000000000227" y="440" as="sourcePoint"/>
                        <mxPoint x="435" y="440" as="targetPoint"/>
                    </mxGeometry>
                </mxCell>
                <mxCell id="15" value="Label" style="edgeLabel;resizable=0;html=1;align=center;verticalAlign=middle;" connectable="0" vertex="1" parent="14">
                    <mxGeometry relative="1" as="geometry"/>
                </mxCell>
                <mxCell id="16" value="" style="endArrow=classic;html=1;exitX=0;exitY=0.5;exitDx=0;exitDy=0;entryX=1;entryY=0.5;entryDx=0;entryDy=0;" edge="1" parent="1" source="6" target="3">
                    <mxGeometry relative="1" as="geometry">
                        <mxPoint x="505" y="370" as="sourcePoint"/>
                        <mxPoint x="260" y="160" as="targetPoint"/>
                    </mxGeometry>
                </mxCell>
                <mxCell id="17" value="Label" style="edgeLabel;resizable=0;html=1;align=center;verticalAlign=middle;" connectable="0" vertex="1" parent="16">
                    <mxGeometry relative="1" as="geometry"/>
                </mxCell>
                <mxCell id="21" style="edgeStyle=none;html=1;exitX=0;exitY=0;exitDx=0;exitDy=0;entryX=0.5;entryY=0;entryDx=0;entryDy=0;" edge="1" parent="1" source="7" target="7">
                    <mxGeometry relative="1" as="geometry">
                        <Array as="points">
                            <mxPoint x="360" y="260"/>
                        </Array>
                    </mxGeometry>
                </mxCell>
            </root>
        </mxGraphModel>
    </diagram>
</mxfile>